<svg width="17" height="15" viewBox="0 0 17 15" fill="none" xmlns="http://www.w3.org/2000/svg"><path d="M8.38798 13.296C8.23865 13.1467 8.23865 12.9973 8.38798 12.848L12.74 8.496H0.515984C0.302651 8.496 0.195984 8.38933 0.195984 8.176V6.448C0.195984 6.23467 0.302651 6.128 0.515984 6.128H12.74L8.38798 1.776C8.23865 1.62667 8.23865 1.47733 8.38798 1.328L9.60398 0.112C9.75332 -0.0373335 9.90265 -0.0373335 10.052 0.112L16.42 6.48C16.676 6.736 16.804 7.01333 16.804 7.312C16.804 7.61067 16.676 7.888 16.42 8.144L10.052 14.512C9.90265 14.6613 9.75332 14.6613 9.60398 14.512L8.38798 13.296Z" fill="#807E98"/></svg>
