<svg width="89" height="89" viewBox="0 0 89 89" fill="none" xmlns="http://www.w3.org/2000/svg">
<path d="M0.75804 22.3364C1.08745 21.4615 1.73812 20.7452 2.57737 20.3336C2.57776 20.3334 2.57815 20.3332 2.57854 20.333L42.904 0.865026C42.904 0.865019 42.904 0.865013 42.904 0.865006C43.4017 0.624771 43.9473 0.5 44.5 0.5C45.0527 0.5 45.5983 0.624771 46.096 0.865006C46.096 0.865013 46.096 0.865019 46.096 0.865026L86.4215 20.333C86.4217 20.3331 86.422 20.3333 86.4222 20.3334C87.2617 20.745 87.9125 21.4614 88.242 22.3364C88.5715 23.2117 88.5547 24.1797 88.1949 25.043C87.8351 25.9063 87.1595 26.5997 86.3058 26.9819C85.4522 27.364 84.485 27.406 83.6015 27.0993L82.9375 26.8688V27.5716V80.656V81.156H83.4375H84.8281C85.802 81.156 86.7359 81.5429 87.4245 82.2315C88.1131 82.9201 88.5 83.8541 88.5 84.828C88.5 85.8019 88.1131 86.7359 87.4245 87.4245C86.7359 88.1131 85.802 88.5 84.8281 88.5H4.17188C3.19804 88.5 2.26408 88.1131 1.57547 87.4245C0.88686 86.7359 0.5 85.8019 0.5 84.828C0.5 83.8541 0.88686 82.9201 1.57547 82.2315C2.26408 81.5429 3.19804 81.156 4.17188 81.156H5.5625H6.0625V80.656V27.5716V26.8688L5.39853 27.0993C4.51501 27.406 3.54777 27.364 2.69415 26.9819C1.84054 26.5997 1.1649 25.9063 0.805107 25.043C0.44531 24.1797 0.428476 23.2117 0.75804 22.3364ZM48.7868 26.5351C49.9238 25.3981 50.5625 23.8561 50.5625 22.2481C50.5625 20.6402 49.9238 19.0982 48.7868 17.9612C47.6499 16.8242 46.1079 16.1855 44.5 16.1855C42.8921 16.1855 41.3501 16.8242 40.2132 17.9612C39.0762 19.0982 38.4375 20.6402 38.4375 22.2481C38.4375 23.8561 39.0762 25.3981 40.2132 26.5351C41.3501 27.6721 42.8921 28.3108 44.5 28.3108C46.1079 28.3108 47.6499 27.6721 48.7868 26.5351ZM31.0938 43.1081C31.0938 41.869 30.6015 40.6807 29.7254 39.8045C28.8492 38.9283 27.6609 38.4361 26.4219 38.4361C25.1828 38.4361 23.9945 38.9283 23.1184 39.8045C22.2422 40.6807 21.75 41.869 21.75 43.1081V73.7027C21.75 74.9418 22.2422 76.1301 23.1184 77.0063C23.9945 77.8825 25.1828 78.3747 26.4219 78.3747C27.6609 78.3747 28.8492 77.8825 29.7254 77.0063C30.6015 76.1301 31.0938 74.9418 31.0938 73.7027V43.1081ZM49.1719 43.1081C49.1719 41.869 48.6797 40.6807 47.8035 39.8045C46.9274 38.9283 45.7391 38.4361 44.5 38.4361C43.2609 38.4361 42.0726 38.9283 41.1965 39.8045C40.3203 40.6807 39.8281 41.869 39.8281 43.1081V73.7027C39.8281 74.9418 40.3203 76.1301 41.1965 77.0063C42.0726 77.8825 43.2609 78.3747 44.5 78.3747C45.7391 78.3747 46.9274 77.8825 47.8035 77.0063C48.6797 76.1301 49.1719 74.9418 49.1719 73.7027V43.1081ZM67.25 43.1081C67.25 41.869 66.7578 40.6807 65.8816 39.8045C65.0055 38.9283 63.8172 38.4361 62.5781 38.4361C61.3391 38.4361 60.1508 38.9283 59.2746 39.8045C58.3985 40.6807 57.9062 41.869 57.9062 43.1081V73.7027C57.9062 74.9418 58.3985 76.1301 59.2746 77.0063C60.1508 77.8825 61.3391 78.3747 62.5781 78.3747C63.8172 78.3747 65.0055 77.8825 65.8816 77.0063C66.7578 76.1301 67.25 74.9418 67.25 73.7027V43.1081Z" fill="#38384D" stroke="#807E98"/>
</svg>
