<svg width="633" height="229" viewBox="0 0 633 229" fill="none" xmlns="http://www.w3.org/2000/svg">
  <path d="M38.2402 195.69C39.2402 196.61 45.8502 198.13 47.9502 198.63C57.8002 200.97 64.5802 202.78 74.7102 203.03C103.46 203.76 134.34 188.46 150.89 166.09C164.43 147.77 167.78 128.62 177.12 107.96C185.12 90.2201 210.85 76.8101 227.84 93.9601C242.44 108.69 237.27 132.9 231.84 149.81C227.02 164.9 209.11 197.81 173.7 215.46C118.78 242.76 65.1302 222.1 38.2402 195.69Z" fill="white"/>
  <path d="M1.7998 94.55C1.7998 94.55 5.31981 42.33 56.0298 9.55002C73.4398 -1.69998 96.5498 -3.85998 100.75 12.23C103.02 20.92 102.27 33.61 75.4798 47.23C64.7298 52.69 50.7798 54.54 31.2498 64.5C6.39981 77.2 1.7998 94.55 1.7998 94.55Z" fill="white"/>
  <path d="M144.66 111.32C155.452 111.32 164.2 102.572 164.2 91.78C164.2 80.9883 155.452 72.24 144.66 72.24C133.868 72.24 125.12 80.9883 125.12 91.78C125.12 102.572 133.868 111.32 144.66 111.32Z" fill="white"/>
  <path d="M64.6101 87.67C64.6639 90.0694 63.7496 92.3894 62.0733 94.107C60.3971 95.8247 58.1001 96.7953 55.7001 96.8C50.6412 96.9381 46.4282 92.949 46.2901 87.89C46.152 82.8311 50.1412 78.6181 55.2001 78.48C60.3167 78.468 64.5011 82.5546 64.6101 87.67Z" fill="white"/>
  <path d="M113.47 35.34C117.811 35.34 121.33 31.821 121.33 27.48C121.33 23.139 117.811 19.62 113.47 19.62C109.129 19.62 105.61 23.139 105.61 27.48C105.61 31.821 109.129 35.34 113.47 35.34Z" fill="white"/>
  <path d="M27.7099 111.06C43.1699 153.53 92.1099 145.15 124.21 156.99C160.54 170.38 156.21 208.93 123.95 219.09C93.7399 228.61 37.1499 215.09 11.5599 159.42C-25.0701 79.71 40.5399 20.77 46.7399 16.48C53.6599 11.69 63.5999 7.21 67.3399 15C71.0799 22.79 63.9999 30 57.2299 33.57C37.9399 43.86 26.4099 54.91 23.1699 77.46C21.9999 86 22.1799 95.87 27.7099 111.06Z" fill="white"/>
  <path d="M7.23999 147.06C10.94 157.21 16.77 170.06 25.35 170.181C33.51 170.3 36.07 158.24 29.45 151.31C23.62 145.21 18.35 137.63 15.83 130.67C13.38 123.9 11.68 104.39 18.9 90.78C29.31 71.14 35.28 75.89 49.07 64C61.6 53.15 56.53 28.76 30.4 41.87C13.56 50.32 -12.1 94.1 7.23999 147.06Z" fill="white"/>
  <path d="M597.49 117.08C605.22 114.64 611.22 110.45 615.49 104.21C619.76 97.97 624.85 89.92 624.85 79.88C624.85 72.56 623.85 66.4 621.8 61.32C619.965 56.5236 616.957 52.2637 613.05 48.93C609.018 45.6708 604.289 43.385 599.23 42.25C593.225 40.8837 587.077 40.2491 580.92 40.36H525.45V175.69H554.54V61.86H570.54C573.671 61.9118 576.797 62.1488 579.9 62.57C582.488 62.8527 584.986 63.6809 587.23 65C589.301 66.2868 590.96 68.1399 592.01 70.34C593.16 72.65 593.74 75.86 593.74 79.92C593.837 83.1999 593.244 86.4635 592 89.5C590.97 91.9206 589.322 94.0278 587.22 95.61C585.152 97.0843 582.82 98.147 580.35 98.74L579.97 98.87C572.24 100.98 564.11 110.77 569.62 121.24C570.03 122.01 570.39 122.46 570.72 123.24L599.38 175.73H632.66L597.49 117.08Z" fill="white"/>
  <path d="M347.12 121.3H366.12V153.7C364.526 153.99 362.917 154.193 361.3 154.31C359.67 154.45 358.01 154.55 356.18 154.62C354.35 154.69 348.9 154.75 347.18 154.82C345.46 154.89 336.55 154.92 335.33 154.92C326.79 154.92 320.557 150.87 316.63 142.77C312.704 134.67 310.74 123.267 310.74 108.56C310.74 93.8467 312.774 82.44 316.84 74.34C320.907 66.24 327.754 62.19 337.38 62.19C342.26 62.19 351.52 61.96 357.75 62.19C360.53 62.31 368.23 61.73 371.92 61.53C382.28 60.97 386.71 45.69 386.71 45.69L387.98 40.69C381.13 39.4 360.11 38.78 337.39 38.78C318.13 38.78 305.81 44.78 295.98 56.67C286.15 68.56 281.24 85.67 281.24 107.92C281.24 130.693 286.087 148.113 295.78 160.18C305.47 172.25 317.32 176.06 335.35 178.28C342.75 179.19 360.51 178.45 368.73 176.85C376.57 175.33 383.87 174.41 392.73 172.38V99.8H347.12V121.3Z" fill="white"/>
  <path d="M506 122.49C504.954 118.503 503.003 114.811 500.3 111.7C496.997 108.033 493.031 105.024 488.61 102.83C482.319 99.6638 475.793 96.9892 469.09 94.8301C464.75 93.4701 458.97 92.1401 456.2 90.8301C453.43 89.5201 447.49 88.2901 445.79 87.0701C444.308 86.0868 443.086 84.7589 442.23 83.2001C441.534 81.7367 441.191 80.1302 441.23 78.5101C441.23 73.5101 442.62 70.2501 445.39 67.3301C448.16 64.4101 456.72 62.9501 463.63 62.9501C466.63 62.9501 486.74 63.4001 490.36 63.1901C495.56 62.8801 502.79 53.6401 504.61 43.0501C504.85 41.6201 504.47 41.6601 503.11 41.3501C499.11 40.4201 469.19 39.5701 463.22 39.5701C454.95 39.5701 444.07 40.5701 437.97 42.5101C432.365 44.2074 427.173 47.047 422.72 50.8501C418.744 54.3144 415.643 58.6694 413.67 63.5601C411.676 68.3493 410.673 73.4926 410.72 78.6801C410.624 83.7477 411.274 88.8019 412.65 93.6801C413.906 97.8282 416.06 101.649 418.96 104.87C422.261 108.41 426.191 111.306 430.55 113.41C436.276 116.208 442.227 118.519 448.34 120.32C452.82 121.68 462.46 123.04 465.44 124.39C467.911 125.467 470.258 126.808 472.44 128.39C473.933 129.445 475.153 130.84 476 132.46C476.66 133.822 477.002 135.316 477 136.83C477 142.53 475.51 147.04 472.53 150.36C469.53 153.68 461.59 154.12 453.73 154.12C446.68 154.12 435.02 153.94 429.25 154.12C422.06 154.34 414.14 153.82 409.25 168.99L407.25 176.13C414.44 176.8 422.25 177.04 428.77 177.66H429.24C436.38 178.29 445.95 178.28 453.64 178.28C462.86 178.28 472.94 177.16 479.45 174.92C485.384 173.01 490.856 169.887 495.52 165.75C499.599 162.06 502.736 157.449 504.67 152.3C506.578 147.117 507.54 141.633 507.51 136.11C507.579 131.525 507.072 126.949 506 122.49Z" fill="white"/>
</svg>
